<svg xmlns="http://www.w3.org/2000/svg" xml:space="preserve" viewBox="0 0 512 512"><path fill="#0d0010" d="M0 0h512v512H0z"/><path fill="#d97df4" d="M278.76 88.1v148.42c0 2.64 1.43 4.06 4.07 4.06h22.36c2.65 0 4.07-1.42 4.07-4.06v-35.79l29.68 37.41a5.8 5.8 0 0 0 4.88 2.44h31.1c3.46 0 4.68-2.44 2.24-5.08l-38.83-41.88 36.6-37.61c2.44-2.65 1.42-5.09-2.04-5.09h-29.88c-2.04 0-3.66.61-5.09 2.24l-28.66 33.75v-60.18c0-20.94-10.78-34.56-30.5-38.63zm-178.1 59.57c-29.88 0-47.78 21.35-47.78 47.98 0 26.84 17.9 48.19 47.78 48.19 27.65 0 45.75-15.66 48.6-36 .4-2.02-1.23-3.24-3.87-3.24h-22.36c-2.44 0-3.66 1.22-4.27 3.66-1.83 7.72-6.71 12-15.86 12-13.83 0-19.52-11.4-19.52-24.6 0-11.8 5.7-24.4 19.52-24.4 9.15 0 14.03 4.26 15.86 12 .6 2.43 1.83 3.65 4.27 3.65h22.36c2.64 0 4.27-1.63 3.86-4.27-3.45-19.92-21.34-34.97-48.59-34.97zm111.42 0c-31.92 0-51.24 20.13-51.24 48.18 0 28.06 19.11 47.99 51.24 47.99 31.92 0 51.03-19.73 51.03-47.99 0-28.05-19.32-48.18-51.03-48.18zm0 23.79c13.41 0 20.73 10.77 20.73 24.6 0 13.62-7.32 23.99-20.73 23.99-13.63 0-20.94-10.57-20.94-24 0-13.61 7.52-24.6 20.94-24.6zm196.19 38.22c-11.18 0-22.36 5.7-22.36 16.47 0 10.98 11.18 16.47 22.36 16.47 10.98 0 22.36-5.5 22.36-16.47 0-10.78-11.38-16.47-22.36-16.47zM97.82 310.32c-26.43 0-44.73 19.72-44.73 47.98 0 28.46 18.3 48.19 44.73 48.19 12.4 0 22.97-4.28 30.7-11.8v16.27c0 14.43-7.53 20.53-20.94 20.53-12.2 0-19.73-4.27-21.76-13.01-.6-2.64-2.03-3.86-4.47-3.86H58.98c-2.64 0-4.27 1.62-3.86 4.27 3.46 26.02 27.04 35.17 52.05 35.17 30.5 0 51.84-13.42 51.84-42.9v-99.62c-12.4 0-21.24 5.39-26.12 15.55-7.93-10.57-20.23-16.77-35.07-16.77zm121.78 0c-26.43 0-44.73 19.72-44.73 47.98 0 28.46 18.3 48.19 44.73 48.19 15.35 0 27.95-6.71 35.88-17.9 4.98 9.97 13.52 15.45 25.32 16.67v-93.72c-11.8 1.22-20.34 6.7-25.32 16.57-7.93-11.08-20.53-17.8-35.88-17.8zm177.29 1.22c-20.95 0-34.77 10.37-42.3 32.93l-10.97 33.14-19.93-60.79a4.58 4.58 0 0 0-4.67-3.25h-22.37c-3.05 0-4.27 1.83-3.25 4.68l34.77 91.49-17.7 44.32c21.76 0 35.38-10.17 43.92-32.12zm-289.72 23.38c12.4 0 21.35 9.76 21.35 23.58 0 13.83-8.95 23.59-21.35 23.59-12.4 0-21.35-9.76-21.35-23.59 0-13.82 8.95-23.58 21.35-23.58zm121.78 0c12.4 0 21.35 9.76 21.35 23.58 0 13.83-8.95 23.59-21.35 23.59-12.4 0-21.35-9.76-21.35-23.59 0-13.82 8.95-23.58 21.35-23.58z" transform="scale(1.0589048 .94437195)"/></svg>
